<?xml version="1.0" encoding="UTF-8" standalone="no"?>
<svg
   xmlns:dc="http://purl.org/dc/elements/1.1/"
   xmlns:cc="http://creativecommons.org/ns#"
   xmlns:rdf="http://www.w3.org/1999/02/22-rdf-syntax-ns#"
   xmlns:svg="http://www.w3.org/2000/svg"
   xmlns="http://www.w3.org/2000/svg"
   xmlns:sodipodi="http://sodipodi.sourceforge.net/DTD/sodipodi-0.dtd"
   xmlns:inkscape="http://www.inkscape.org/namespaces/inkscape"
   width="1600"
   height="900"
   viewBox="0 0 423.33334 238.125"
   version="1.1"
   id="svg8"
   inkscape:version="0.92.5 (2060ec1f9f, 2020-04-08)"
   sodipodi:docname="background.svg">
  <defs
     id="defs2" />
  <sodipodi:namedview
     id="base"
     pagecolor="#340e01"
     bordercolor="#666666"
     borderopacity="1.0"
     inkscape:pageopacity="0"
     inkscape:pageshadow="2"
     inkscape:zoom="0.92349885"
     inkscape:cx="992.66967"
     inkscape:cy="68.583738"
     inkscape:document-units="mm"
     inkscape:current-layer="layer1"
     inkscape:document-rotation="0"
     showgrid="false"
     inkscape:snap-global="false"
     units="px"
     inkscape:window-width="1920"
     inkscape:window-height="1016"
     inkscape:window-x="1920"
     inkscape:window-y="27"
     inkscape:window-maximized="1" />
  <metadata
     id="metadata5">
    <rdf:RDF>
      <cc:Work
         rdf:about="">
        <dc:format>image/svg+xml</dc:format>
        <dc:type
           rdf:resource="http://purl.org/dc/dcmitype/StillImage" />
        <dc:title></dc:title>
      </cc:Work>
    </rdf:RDF>
  </metadata>
  <g
     inkscape:label="Layer 1"
     inkscape:groupmode="layer"
     id="layer1"
     transform="translate(34.949844,-22.216227)">
    <path
       style="fill:#aa4400;stroke:#2b1100;stroke-width:0.883786;stroke-linecap:butt;stroke-linejoin:miter;stroke-miterlimit:4;stroke-dasharray:none;stroke-opacity:1"
       d="m -13.674128,160.16511 1.346693,11.87002 12.6987266,3.36769 0.8142034,-8.38706 8.5017171,-7.11495 -7.120154,-8.93248 -15.2152541,4.57124 z"
       id="path835" />
    <path
       id="path837"
       style="fill:#1c0a00;fill-opacity:1;stroke:#3c1800;stroke-width:1.35305;stroke-linecap:butt;stroke-linejoin:miter;stroke-miterlimit:4;stroke-dasharray:none;stroke-opacity:1"
       d="m -12.082328,156.05991 c -0.271659,1.4669 -0.758383,2.92248 -0.892836,4.39662 0.418468,3.68498 0.836936,7.36996 1.255407,11.05494 3.8355765,1.0161 7.6711669,2.03215 11.50674338,3.04822 0.25497609,-2.62626 0.50836938,-5.25269 0.76433421,-7.87882 2.73770091,-2.29033 5.47443601,-4.58176 8.21176191,-6.87254 -2.1452206,-2.69235 -4.2904276,-5.38474 -6.4356452,-8.07712 -4.8032588,1.4429 -9.6065053,2.88579 -14.4097653,4.3287 z" />
    <path
       style="fill:#553019;fill-opacity:1;stroke:none;stroke-width:0.413867px;stroke-linecap:butt;stroke-linejoin:miter;stroke-opacity:1"
       d="m -5.1108834,159.45979 2.0370485,1.34975 1.1562016,-2.12477 -2.4870276,-0.75873 z"
       id="path842"
       sodipodi:nodetypes="ccccc" />
    <path
       style="fill:#553019;fill-opacity:1;stroke:none;stroke-width:0.413867px;stroke-linecap:butt;stroke-linejoin:miter;stroke-opacity:1"
       d="m -6.7340616,165.0274 -2.2982235,0.83128 1.0190255,2.19382 2.0912326,-1.54457 z"
       id="path844"
       sodipodi:nodetypes="ccccc"
       inkscape:transform-center-x="1.2434755"
       inkscape:transform-center-y="-0.26586336" />
    <path
       style="fill:#aa4400;stroke:#2b1100;stroke-width:0.883786;stroke-linecap:butt;stroke-linejoin:miter;stroke-miterlimit:4;stroke-dasharray:none;stroke-opacity:1"
       d="m 342.86296,60.635103 -10.95639,-4.775768 -9.27299,9.301701 6.85779,4.90219 1.90816,10.916922 11.30139,-1.689799 3.65546,-15.452483 z"
       id="path846" />
    <path
       id="path848"
       style="fill:#1c0a00;fill-opacity:1;stroke:#3c1800;stroke-width:1.35305;stroke-linecap:butt;stroke-linejoin:miter;stroke-miterlimit:4;stroke-dasharray:none;stroke-opacity:1"
       d="m 345.62241,64.06703 c -1.13474,-0.969238 -2.15202,-2.118874 -3.36171,-2.973027 -3.40157,-1.482268 -6.80312,-2.964527 -10.20467,-4.446795 -2.79989,2.810063 -5.59977,5.620166 -8.39966,8.430255 2.14739,1.535055 4.2957,3.068808 6.44248,4.604681 0.61375,3.515016 1.229,7.029778 1.84332,10.544705 3.40596,-0.508557 6.8119,-1.017097 10.21785,-1.525636 1.15412,-4.878077 2.30826,-9.756126 3.46239,-14.634183 z" />
    <path
       style="fill:#553019;fill-opacity:1;stroke:none;stroke-width:0.413867px;stroke-linecap:butt;stroke-linejoin:miter;stroke-opacity:1"
       d="m 339.18802,68.397235 -2.18875,1.086934 1.26189,2.063822 1.90205,-1.772067 z"
       id="path850"
       sodipodi:nodetypes="ccccc" />
    <path
       style="fill:#553019;fill-opacity:1;stroke:none;stroke-width:0.413867px;stroke-linecap:butt;stroke-linejoin:miter;stroke-opacity:1"
       d="m 335.17751,64.206213 0.43018,-2.404526 -2.41041,-0.216314 0.29131,2.582431 z"
       id="path852"
       sodipodi:nodetypes="ccccc"
       inkscape:transform-center-x="-1.0159622"
       inkscape:transform-center-y="-0.85327703" />
    <path
       id="path856"
       style="fill:#1c0a00;fill-opacity:1;stroke:#3c1800;stroke-width:2.44800997;stroke-linecap:butt;stroke-linejoin:miter;stroke-miterlimit:4;stroke-dasharray:none;stroke-opacity:1"
       d="m 1.2696167,12.035096 -38.2806847,14.002149 -13.383296,149.513735 10.683608,97.56456 103.926682,-6.62469 -4.554964,-44.60908 -70.163688,-5.35845 -6.273969,-34.29505 -2.262956,-24.55401 8.815877,-72.078688 57.135108,-43.321239 49.599374,-0.544925 22.093532,-9.260766 21.56061,5.829827 23.66937,2.355977 23.2534,3.896156 19.03768,-9.865185 14.48937,-0.03392 11.74286,3.09313 21.2218,-5.499292 12.59308,5.349787 28.79668,5.483196 21.10725,-8.961341 25.95202,13.775761 6.97891,3.197372 12.73436,18.564615 -6.0859,12.914437 10.29496,29.664458 9.92194,21.30425 -5.7129,21.27465 -9.96677,33.0708 -5.40326,25.40055 -9.98729,6.77484 -70.12472,-1.81704 -5.97627,21.67919 1.17815,27.5169 119.4522,2.87443 -2.28815,-195.945836 0.80846,-62.142737 -189.84917,-3.9957609 z"
       sodipodi:nodetypes="ccccccccccccccccccccccccccccccccccccccccc"
       inkscape:connector-curvature="0" />
    <path
       style="fill:#553019;fill-opacity:1;stroke:none;stroke-width:0.413867px;stroke-linecap:butt;stroke-linejoin:miter;stroke-opacity:1"
       d="m -19.494054,234.91266 -4.731081,2.53035 2.85025,4.93776 2.091234,-1.54455 z"
       id="path859"
       sodipodi:nodetypes="ccccc"
       inkscape:transform-center-x="1.2434757"
       inkscape:transform-center-y="-0.26587282" />
    <path
       style="fill:#553019;fill-opacity:1;stroke:none;stroke-width:0.413867px;stroke-linecap:butt;stroke-linejoin:miter;stroke-opacity:1"
       d="m -25.983876,182.66568 -0.549448,2.38015 2.396631,0.336 -0.162269,-2.59373 z"
       id="path863"
       sodipodi:nodetypes="ccccc"
       inkscape:transform-center-x="1.1171117"
       inkscape:transform-center-y="0.81235398" />
    <path
       style="fill:#aa4400;stroke:#2b1100;stroke-width:0.883786;stroke-linecap:butt;stroke-linejoin:miter;stroke-miterlimit:4;stroke-dasharray:none;stroke-opacity:1"
       d="m -1.2151563,99.287356 1.34669393,11.869984 12.69872337,3.36769 5.538572,-8.37734 3.59665,-16.593208 -14.2899443,-4.10587 -7.86476485,9.21319 z"
       id="path873"
       sodipodi:nodetypes="cccccccc" />
    <path
       id="path875"
       style="fill:#1c0a00;fill-opacity:1;stroke:#3c1800;stroke-width:1.35305;stroke-linecap:butt;stroke-linejoin:miter;stroke-miterlimit:4;stroke-dasharray:none;stroke-opacity:1"
       d="m 0.37664111,95.182141 -0.8928362,4.396621 1.25540751,11.054928 11.50674458,3.04822 5.488699,-7.8691 3.306697,-16.350801 -13.6054351,-3.250533 z"
       sodipodi:nodetypes="cccccccc" />
    <path
       style="fill:#553019;fill-opacity:1;stroke:none;stroke-width:0.413867px;stroke-linecap:butt;stroke-linejoin:miter;stroke-opacity:1"
       d="M 7.3480876,98.582018 9.3851336,99.93178 10.541338,97.80701 8.0543086,97.048275 Z"
       id="path877"
       sodipodi:nodetypes="ccccc" />
    <path
       style="fill:#553019;fill-opacity:1;stroke:none;stroke-width:0.413867px;stroke-linecap:butt;stroke-linejoin:miter;stroke-opacity:1"
       d="m 5.7249078,104.14964 -2.2982235,0.83128 1.0190255,2.19379 2.0912326,-1.54454 z"
       id="path879"
       sodipodi:nodetypes="ccccc"
       inkscape:transform-center-x="1.2434764"
       inkscape:transform-center-y="-0.26586485" />
    <path
       style="fill:#553019;fill-opacity:1;stroke:none;stroke-width:0.413866px;stroke-linecap:butt;stroke-linejoin:miter;stroke-opacity:1"
       d="m -20.70219,210.10515 -0.283138,-3.91842 -4.724542,1.20172 1.74943,3.73026 z"
       id="path885"
       sodipodi:nodetypes="ccccc"
       inkscape:transform-center-x="-1.1432484"
       inkscape:transform-center-y="-1.8959491" />
    <path
       style="fill:#aa4400;stroke:#2b1100;stroke-width:0.883786;stroke-linecap:butt;stroke-linejoin:miter;stroke-miterlimit:4;stroke-dasharray:none;stroke-opacity:1"
       d="m 344.39536,89.024911 -10.96726,4.750811 0.48232,13.121578 8.26435,-1.6689 9.29007,6.05088 6.47127,-9.41263 -8.81446,-13.210695 z"
       id="path887" />
    <path
       id="path889"
       style="fill:#1c0a00;fill-opacity:1;stroke:#3c1800;stroke-width:1.35305;stroke-linecap:butt;stroke-linejoin:miter;stroke-miterlimit:4;stroke-dasharray:none;stroke-opacity:1"
       d="m 348.78875,89.348694 c -1.4832,0.168286 -3.01825,0.127822 -4.46834,0.429407 -3.4046,1.475244 -6.80919,2.950489 -10.21382,4.42573 0.14679,3.962966 0.29349,7.925929 0.44022,11.888909 2.58786,-0.52257 5.17543,-1.04669 7.76344,-1.56827 2.99076,1.94874 5.98234,3.89621 8.97344,5.84444 1.95078,-2.83623 3.90159,-5.67246 5.85241,-8.50872 -2.78247,-4.170483 -5.5649,-8.340991 -8.34735,-12.511496 z" />
    <path
       style="fill:#553019;fill-opacity:1;stroke:none;stroke-width:0.413867px;stroke-linecap:butt;stroke-linejoin:miter;stroke-opacity:1"
       d="m 347.56903,97.004868 -0.69741,2.34109 2.37089,0.485252 4.9e-4,-2.598799 z"
       id="path891"
       sodipodi:nodetypes="ccccc" />
    <path
       style="fill:#553019;fill-opacity:1;stroke:none;stroke-width:0.413867px;stroke-linecap:butt;stroke-linejoin:miter;stroke-opacity:1"
       d="m 341.76693,97.077764 -1.46616,-1.954336 -1.80224,1.61421 2.0884,1.548384 z"
       id="path893"
       sodipodi:nodetypes="ccccc"
       inkscape:transform-center-x="0.078184028"
       inkscape:transform-center-y="-1.3702968" />
    <path
       style="fill:#553019;fill-opacity:1;stroke:none;stroke-width:0.413866px;stroke-linecap:butt;stroke-linejoin:miter;stroke-opacity:1"
       d="m 382.05904,227.48719 -0.28313,-3.91843 -4.72456,1.20167 1.74945,3.73029 z"
       id="path895"
       sodipodi:nodetypes="ccccc"
       inkscape:transform-center-x="-1.1432357"
       inkscape:transform-center-y="-1.8959349" />
    <path
       style="fill:#553019;fill-opacity:1;stroke:none;stroke-width:0.413866px;stroke-linecap:butt;stroke-linejoin:miter;stroke-opacity:1"
       d="m 381.24434,164.51002 -0.20739,-3.52579 -3.46012,1.08128 1.28122,3.35649 z"
       id="path897"
       sodipodi:nodetypes="ccccc"
       inkscape:transform-center-x="-0.83727893"
       inkscape:transform-center-y="-1.705954" />
    <path
       style="fill:#553019;fill-opacity:1;stroke:none;stroke-width:0.413866px;stroke-linecap:butt;stroke-linejoin:miter;stroke-opacity:1"
       d="m 371.3946,104.67409 1.3734,3.25421 2.90031,-2.17384 -2.32908,-2.73632 z"
       id="path899"
       sodipodi:nodetypes="ccccc"
       inkscape:transform-center-x="0.24756646"
       inkscape:transform-center-y="2.0665985" />
    <path
       style="fill:#553019;fill-opacity:1;stroke:none;stroke-width:0.413866px;stroke-linecap:butt;stroke-linejoin:miter;stroke-opacity:1"
       d="m 88.259722,33.253738 -0.283147,-3.918434 -4.724538,1.201698 1.749438,3.730289 z"
       id="path901"
       sodipodi:nodetypes="ccccc"
       inkscape:transform-center-x="-1.1432484"
       inkscape:transform-center-y="-1.8959424" />
    <path
       style="fill:#553019;fill-opacity:1;stroke:none;stroke-width:0.413866px;stroke-linecap:butt;stroke-linejoin:miter;stroke-opacity:1"
       d="m 9.6194619,50.248262 -0.283147,-3.918434 -4.7245385,1.201699 1.749438,3.73029 z"
       id="path921"
       sodipodi:nodetypes="ccccc"
       inkscape:transform-center-x="-1.1432486"
       inkscape:transform-center-y="-1.8959424" />
    <path
       style="fill:#553019;fill-opacity:1;stroke:none;stroke-width:0.766735px;stroke-linecap:butt;stroke-linejoin:miter;stroke-opacity:1"
       d="m 374.53443,92.198833 3.80654,-5.174431 -6.27433,-2.673073 -2.05299,6.236205 z"
       id="path923"
       sodipodi:nodetypes="ccccc"
       inkscape:transform-center-x="-3.9788549"
       inkscape:transform-center-y="-1.2519066" />
    <path
       style="fill:#553019;fill-opacity:1;stroke:none;stroke-width:0.413867px;stroke-linecap:butt;stroke-linejoin:miter;stroke-opacity:1"
       d="m -21.347048,116.40398 -0.549448,2.38016 2.396629,0.336 -0.162267,-2.59374 z"
       id="path925"
       sodipodi:nodetypes="ccccc"
       inkscape:transform-center-x="1.1171125"
       inkscape:transform-center-y="0.81235349" />
    <path
       style="fill:#553019;fill-opacity:1;stroke:none;stroke-width:0.757009px;stroke-linecap:butt;stroke-linejoin:miter;stroke-opacity:1"
       d="m -20.211996,108.53059 -1.111517,3.93636 4.848311,0.5557 -0.328263,-4.2896 z"
       id="path927"
       sodipodi:nodetypes="ccccc"
       inkscape:transform-center-x="2.2598839"
       inkscape:transform-center-y="1.3434977" />
    <path
       style="fill:#553019;fill-opacity:1;stroke:none;stroke-width:0.646769px;stroke-linecap:butt;stroke-linejoin:miter;stroke-opacity:1"
       d="m -5.2130862,63.460491 6.862339,-1.277592 -3.5672229,-6.045343 -6.082945,3.196192 z"
       id="path929"
       sodipodi:nodetypes="ccccc"
       inkscape:transform-center-x="-3.9324438"
       inkscape:transform-center-y="1.1162623" />
    <path
       style="fill:#553019;fill-opacity:1;stroke:none;stroke-width:0.610938px;stroke-linecap:butt;stroke-linejoin:miter;stroke-opacity:1"
       d="m 52.447505,35.025312 2.267003,-5.065827 -7.512069,-1.335563 -0.06142,5.711235 z"
       id="path931"
       sodipodi:nodetypes="ccccc"
       inkscape:transform-center-x="-3.9495091"
       inkscape:transform-center-y="-1.5648085" />
    <path
       style="fill:#553019;fill-opacity:1;stroke:none;stroke-width:0.599834px;stroke-linecap:butt;stroke-linejoin:miter;stroke-opacity:1"
       d="m 27.921711,40.366451 -0.438328,-5.317008 -7.313859,1.630609 2.708231,5.061713 z"
       id="path933"
       sodipodi:nodetypes="ccccc"
       inkscape:transform-center-x="-1.769815"
       inkscape:transform-center-y="-2.5726462" />
    <path
       style="fill:#553019;fill-opacity:1;stroke:none;stroke-width:0.498356px;stroke-linecap:butt;stroke-linejoin:miter;stroke-opacity:1"
       d="m -1.5924231,43.528213 -0.2831471,-5.681617 -4.7245388,1.742427 1.7494379,5.408815 z"
       id="path935"
       sodipodi:nodetypes="ccccc"
       inkscape:transform-center-x="-1.1432486"
       inkscape:transform-center-y="-2.7490627" />
    <path
       style="fill:#553019;fill-opacity:1;stroke:none;stroke-width:0.498356px;stroke-linecap:butt;stroke-linejoin:miter;stroke-opacity:1"
       d="m 185.0665,37.713473 -0.28314,-5.681617 -4.72455,1.742427 1.74944,5.408815 z"
       id="path937"
       sodipodi:nodetypes="ccccc"
       inkscape:transform-center-x="-1.1432487"
       inkscape:transform-center-y="-2.7490629" />
    <path
       style="fill:#553019;fill-opacity:1;stroke:none;stroke-width:0.413867px;stroke-linecap:butt;stroke-linejoin:miter;stroke-opacity:1"
       d="m 341.90487,30.815884 -1.63607,1.813936 1.93202,1.457326 1.11762,-2.346212 z"
       id="path939"
       sodipodi:nodetypes="ccccc" />
    <path
       style="fill:#553019;fill-opacity:1;stroke:none;stroke-width:0.413866px;stroke-linecap:butt;stroke-linejoin:miter;stroke-opacity:1"
       d="m 360.1198,47.982435 -0.15888,3.528582 3.55312,-0.715937 -0.92662,-3.471815 z"
       id="path941"
       sodipodi:nodetypes="ccccc"
       inkscape:transform-center-x="1.0800388"
       inkscape:transform-center-y="1.5540653" />
    <path
       style="fill:#553019;fill-opacity:1;stroke:none;stroke-width:0.766735px;stroke-linecap:butt;stroke-linejoin:miter;stroke-opacity:1"
       d="m 368.31757,38.06845 5.66124,-3.035569 -4.51589,-5.110684 -4.53444,4.748044 z"
       id="path943"
       sodipodi:nodetypes="ccccc"
       inkscape:transform-center-x="-3.9024015"
       inkscape:transform-center-y="0.20319083" />
    <path
       style="fill:#553019;fill-opacity:1;stroke:none;stroke-width:0.413867px;stroke-linecap:butt;stroke-linejoin:miter;stroke-opacity:1"
       d="m 293.78928,31.914193 -1.63606,1.813936 1.93203,1.457326 1.11762,-2.346212 z"
       id="path945"
       sodipodi:nodetypes="ccccc" />
    <path
       style="fill:#553019;fill-opacity:1;stroke:none;stroke-width:0.688852px;stroke-linecap:butt;stroke-linejoin:miter;stroke-opacity:1"
       d="m 283.86784,29.669865 -3.18921,2.577928 3.76612,2.071122 2.17858,-3.334388 z"
       id="path947"
       sodipodi:nodetypes="ccccc" />
    <path
       style="fill:#553019;fill-opacity:1;stroke:none;stroke-width:0.540955px;stroke-linecap:butt;stroke-linejoin:miter;stroke-opacity:1"
       d="m 168.01853,31.258708 -2.15707,2.3505 2.54727,1.888405 1.47351,-3.040223 z"
       id="path949"
       sodipodi:nodetypes="ccccc" />
    <path
       style="fill:#553019;fill-opacity:1;stroke:none;stroke-width:0.413866px;stroke-linecap:butt;stroke-linejoin:miter;stroke-opacity:1"
       d="m 378.31095,171.70401 -0.20738,-3.5258 -3.46012,1.08128 1.28123,3.35649 z"
       id="path951"
       sodipodi:nodetypes="ccccc"
       inkscape:transform-center-x="-0.8372745"
       inkscape:transform-center-y="-1.7059549" />
    <path
       style="fill:#553019;fill-opacity:1;stroke:none;stroke-width:0.413866px;stroke-linecap:butt;stroke-linejoin:miter;stroke-opacity:1"
       d="m 384.11603,177.11656 -0.20738,-3.52581 -3.46012,1.08129 1.28123,3.35649 z"
       id="path953"
       sodipodi:nodetypes="ccccc"
       inkscape:transform-center-x="-0.83727753"
       inkscape:transform-center-y="-1.7059583" />
    <path
       id="path853"
       d="m -0.27620636,207.61576 10.88600736,4.91994 9.393937,-9.18439 -6.787822,-4.99311 -1.759484,-10.94559 -11.31828666,1.54343 -3.86256084,15.41041 z"
       style="fill:#aa4400;stroke:#2b1100;stroke-width:0.88378602;stroke-linecap:butt;stroke-linejoin:miter;stroke-miterlimit:4;stroke-dasharray:none;stroke-opacity:1"
       inkscape:connector-curvature="0"
       inkscape:transform-center-x="9.9792418"
       inkscape:transform-center-y="-4.9362794" />
    <path
       d="m -2.9877415,204.14674 c 1.1210215,0.98433 2.12221794,2.14761 3.31970044,3.01779 3.37970086,1.52702 6.75940176,3.05405 10.13910406,4.58108 2.836447,-2.77465 5.672858,-5.54934 8.509279,-8.324 -2.125475,-1.56353 -4.251907,-3.12578 -6.376764,-4.69009 -0.56589,-3.52425 -1.13322,-7.04824 -1.699689,-10.57241 -3.4110121,0.46446 -6.8220512,0.92888 -10.23308676,1.39332 -1.2195166,4.86477 -2.43903534,9.72953 -3.65854374,14.59431 z"
       style="fill:#1c0a00;fill-opacity:1;stroke:#3c1800;stroke-width:1.35304999;stroke-linecap:butt;stroke-linejoin:miter;stroke-miterlimit:4;stroke-dasharray:none;stroke-opacity:1"
       id="path855"
       inkscape:connector-curvature="0"
       inkscape:transform-center-x="10.122603"
       inkscape:transform-center-y="-4.9580744" />
    <path
       sodipodi:nodetypes="ccccc"
       id="path857"
       d="m 3.5018044,199.89868 2.2023144,-1.05887 -1.2333091,-2.08096 -1.9249804,1.74798 z"
       style="fill:#553019;fill-opacity:1;stroke:none;stroke-width:0.413867px;stroke-linecap:butt;stroke-linejoin:miter;stroke-opacity:1"
       inkscape:connector-curvature="0"
       inkscape:transform-center-x="13.993929"
       inkscape:transform-center-y="-6.5816694" />
    <path
       inkscape:transform-center-y="0.55665568"
       inkscape:transform-center-x="9.9247543"
       sodipodi:nodetypes="ccccc"
       id="path860"
       d="m 7.4535141,204.14332 -0.462474,2.39979 2.4062168,0.24775 -0.2562233,-2.58714 z"
       style="fill:#553019;fill-opacity:1;stroke:none;stroke-width:0.413867px;stroke-linecap:butt;stroke-linejoin:miter;stroke-opacity:1"
       inkscape:connector-curvature="0" />
    <path
       inkscape:transform-center-y="-0.22956282"
       inkscape:transform-center-x="-0.21807382"
       sodipodi:nodetypes="ccccc"
       id="path862"
       d="m 17.486292,234.4739 -0.58003,-5.33379 -5.645005,0.79957 0.651629,2.5168 z"
       style="fill:#553019;fill-opacity:1;stroke:none;stroke-width:0.413867px;stroke-linecap:butt;stroke-linejoin:miter;stroke-opacity:1"
       inkscape:connector-curvature="0" />
  </g>
</svg>
