<?xml version="1.0" encoding="UTF-8" standalone="no"?>
<svg
   xmlns:dc="http://purl.org/dc/elements/1.1/"
   xmlns:cc="http://creativecommons.org/ns#"
   xmlns:rdf="http://www.w3.org/1999/02/22-rdf-syntax-ns#"
   xmlns:svg="http://www.w3.org/2000/svg"
   xmlns="http://www.w3.org/2000/svg"
   xmlns:sodipodi="http://sodipodi.sourceforge.net/DTD/sodipodi-0.dtd"
   xmlns:inkscape="http://www.inkscape.org/namespaces/inkscape"
   width="14.66008mm"
   height="21.227011mm"
   viewBox="0 0 14.66008 21.227011"
   version="1.1"
   id="svg1530"
   inkscape:version="1.0.1 (3bc2e813f5, 2020-09-07)"
   sodipodi:docname="sheep.svg">
  <defs
     id="defs1524" />
  <sodipodi:namedview
     id="base"
     pagecolor="#ffffff"
     bordercolor="#666666"
     borderopacity="1.0"
     inkscape:pageopacity="0.0"
     inkscape:pageshadow="2"
     inkscape:zoom="3.959798"
     inkscape:cx="2.0342117"
     inkscape:cy="51.500141"
     inkscape:document-units="mm"
     inkscape:current-layer="layer1"
     inkscape:document-rotation="0"
     showgrid="false"
     inkscape:window-width="1920"
     inkscape:window-height="1016"
     inkscape:window-x="1920"
     inkscape:window-y="27"
     inkscape:window-maximized="1" />
  <metadata
     id="metadata1527">
    <rdf:RDF>
      <cc:Work
         rdf:about="">
        <dc:format>image/svg+xml</dc:format>
        <dc:type
           rdf:resource="http://purl.org/dc/dcmitype/StillImage" />
        <dc:title></dc:title>
      </cc:Work>
    </rdf:RDF>
  </metadata>
  <g
     inkscape:label="Layer 1"
     inkscape:groupmode="layer"
     id="layer1"
     transform="translate(-73.374629,-156.50448)">
    <rect
       style="fill:#502d16;fill-opacity:1;stroke:#000000;stroke-width:0.287487;stroke-miterlimit:4;stroke-dasharray:none"
       id="rect2145"
       width="0.99213988"
       height="2.7466166"
       x="173.8922"
       y="66.720901"
       ry="0.016956782"
       transform="rotate(45)" />
    <rect
       style="fill:#502d16;fill-opacity:1;stroke:#000000;stroke-width:0.287487;stroke-miterlimit:4;stroke-dasharray:none"
       id="rect2137"
       width="0.99213988"
       height="2.7466166"
       x="173.8922"
       y="66.720901"
       ry="0.016956782"
       transform="rotate(45)" />
    <rect
       style="fill:#502d16;fill-opacity:1;stroke:#000000;stroke-width:0.287487;stroke-miterlimit:4;stroke-dasharray:none"
       id="rect2139"
       width="0.99213988"
       height="2.7466166"
       x="59.827827"
       y="180.78526"
       ry="0.016956782"
       transform="matrix(-0.70710678,0.70710678,0.70710678,0.70710678,0,0)" />
    <rect
       style="fill:#502d16;fill-opacity:1;stroke:#000000;stroke-width:0.287487;stroke-miterlimit:4;stroke-dasharray:none"
       id="rect2141"
       width="0.99213988"
       height="2.7466166"
       x="-63.305771"
       y="-170.47707"
       ry="0.016956782"
       transform="matrix(0.70710678,-0.70710678,-0.70710678,-0.70710678,0,0)" />
    <rect
       style="fill:#502d16;fill-opacity:1;stroke:#000000;stroke-width:0.287487;stroke-miterlimit:4;stroke-dasharray:none"
       id="rect2143"
       width="0.99213988"
       height="2.7466166"
       x="-177.37013"
       y="-56.412704"
       ry="0.016956782"
       transform="rotate(-135)" />
    <rect
       style="fill:#502d16;fill-opacity:1;stroke:#000000;stroke-width:0.287487;stroke-miterlimit:4;stroke-dasharray:none"
       id="rect2149"
       width="0.99213988"
       height="2.7466166"
       x="-168.09885"
       y="-76.534554"
       ry="0.016956782"
       transform="matrix(0,-1,-1,0,0,0)" />
    <rect
       style="fill:#502d16;fill-opacity:1;stroke:#000000;stroke-width:0.287487;stroke-miterlimit:4;stroke-dasharray:none"
       id="rect2151"
       width="0.99213988"
       height="2.7466166"
       x="-168.09885"
       y="84.77681"
       ry="0.016956782"
       transform="rotate(-90)" />
    <path
       style="fill:none;stroke:#000000;stroke-width:0.375128;stroke-linecap:butt;stroke-linejoin:miter;stroke-miterlimit:4;stroke-dasharray:none;stroke-opacity:1"
       d="m 81.000229,174.16108 -1.710052,2.07469 1.311187,1.23441"
       id="path2153" />
    <path
       style="fill:#803300;stroke:#000000;stroke-width:0.561527;stroke-linecap:butt;stroke-linejoin:miter;stroke-miterlimit:4;stroke-dasharray:none;stroke-opacity:1;paint-order:normal"
       d="m 78.256579,173.35058 c -0.75036,0.33983 -3.162356,-0.0393 -1.998375,-1.86208 -0.947926,-1.09637 -0.793816,-2.26399 -0.05537,-3.64089 -0.660474,-1.01316 -0.738092,-2.6898 0.329696,-2.8001 -0.327769,-1.02793 -0.542202,-2.72294 0.711911,-2.78293 -0.160051,-1.58625 5.76731,-2.21442 5.746869,-0.89563 1.467881,-0.2812 2.166809,1.07387 1.232249,1.98869 1.299858,0.22828 2.051368,4.1838 0.523265,4.97891 1.203244,1.15303 0.994557,3.80238 -0.256049,4.15773 0.590916,1.26829 -2.123276,2.64193 -3.18878,1.42928 -0.861945,1.2197 -3.001201,0.57436 -3.045417,-0.57297 z"
       id="path2095"
       sodipodi:nodetypes="cccccccccccc" />
    <rect
       style="fill:#cccccc;stroke:#808080;stroke-width:0.619608;stroke-miterlimit:4;stroke-dasharray:none"
       id="rect2115"
       width="0.99213988"
       height="2.7466166"
       x="73.684433"
       y="162.25966"
       ry="0.016956782" />
    <rect
       style="fill:#cccccc;stroke:#808080;stroke-width:0.619608;stroke-miterlimit:4;stroke-dasharray:none"
       id="rect2117"
       width="0.99213988"
       height="2.7466166"
       x="73.684433"
       y="166.35796"
       ry="0.016956782" />
    <rect
       style="fill:#cccccc;stroke:#808080;stroke-width:0.619608;stroke-miterlimit:4;stroke-dasharray:none"
       id="rect2119"
       width="0.99213988"
       height="2.7466166"
       x="73.684433"
       y="170.49342"
       ry="0.016956782" />
    <rect
       style="fill:#cccccc;stroke:#808080;stroke-width:0.619608;stroke-miterlimit:4;stroke-dasharray:none"
       id="rect2121"
       width="0.99213988"
       height="2.7466166"
       x="86.732765"
       y="162.25966"
       ry="0.016956782" />
    <rect
       style="fill:#cccccc;stroke:#808080;stroke-width:0.619608;stroke-miterlimit:4;stroke-dasharray:none"
       id="rect2123"
       width="0.99213988"
       height="2.7466166"
       x="86.732765"
       y="166.35796"
       ry="0.016956782" />
    <rect
       style="fill:#cccccc;stroke:#808080;stroke-width:0.619608;stroke-miterlimit:4;stroke-dasharray:none"
       id="rect2125"
       width="0.99213988"
       height="2.7466166"
       x="86.732765"
       y="170.49342"
       ry="0.016956782" />
    <path
       style="fill:#d38d5f;stroke:#000000;stroke-width:0.375128;stroke-linecap:butt;stroke-linejoin:miter;stroke-miterlimit:4;stroke-dasharray:none;stroke-opacity:1"
       d="m 77.952157,160.42702 c 0,0 -3.035824,-1.56996 -3.098943,-0.11926 -0.06312,1.45069 3.165734,0.39309 3.165734,0.39309"
       id="path2131" />
    <path
       style="fill:#d38d5f;stroke:#000000;stroke-width:0.375128;stroke-linecap:butt;stroke-linejoin:miter;stroke-miterlimit:4;stroke-dasharray:none;stroke-opacity:1"
       d="m 83.054565,160.08447 c 0,0 3.035824,-1.56997 3.098943,-0.11927 0.06312,1.4507 -3.165734,0.3931 -3.165734,0.3931"
       id="path2133" />
    <rect
       style="fill:#d38d5f;fill-opacity:1;stroke:#000000;stroke-width:0.440327;stroke-miterlimit:4;stroke-dasharray:none"
       id="rect2135"
       width="2.6569147"
       height="2.4441462"
       x="79.233467"
       y="156.72464"
       ry="0.022985132" />
    <path
       style="fill:#803300;fill-opacity:1;stroke:#000000;stroke-width:0.551073;stroke-linecap:butt;stroke-linejoin:miter;stroke-miterlimit:4;stroke-dasharray:none;stroke-opacity:1"
       d="m 78.018948,160.70085 c -1.099911,-0.57447 -0.0069,-1.86641 1.123891,-1.17103 0.296674,-1.14317 1.764942,-0.98326 2.383255,-0.36104 0.906585,-0.57233 2.625295,0.47196 2.130929,1.18708 0.766138,0.5799 -1.057805,1.64906 -1.818104,0.94876 -0.394928,0.68058 -1.757456,0.72833 -2.016373,0.14276 -0.604622,0.73222 -2.677833,0.13018 -1.803598,-0.74653 z"
       id="path2129"
       sodipodi:nodetypes="ccccccc" />
    <circle
       style="fill:#000000;fill-opacity:1;stroke:none;stroke-width:0.287488;stroke-linecap:butt;stroke-linejoin:miter;stroke-miterlimit:4;stroke-dasharray:none;paint-order:normal"
       id="path2155"
       cx="80.456177"
       cy="177.28369"
       r="0.44779572" />
  </g>
</svg>
