<?xml version="1.0" encoding="UTF-8" standalone="no"?>
<svg
   xmlns:dc="http://purl.org/dc/elements/1.1/"
   xmlns:cc="http://creativecommons.org/ns#"
   xmlns:rdf="http://www.w3.org/1999/02/22-rdf-syntax-ns#"
   xmlns:svg="http://www.w3.org/2000/svg"
   xmlns="http://www.w3.org/2000/svg"
   xmlns:sodipodi="http://sodipodi.sourceforge.net/DTD/sodipodi-0.dtd"
   xmlns:inkscape="http://www.inkscape.org/namespaces/inkscape"
   width="26.458332mm"
   height="26.458332mm"
   viewBox="0 0 26.458332 26.458332"
   version="1.1"
   id="svg8"
   inkscape:version="1.0.1 (3bc2e813f5, 2020-09-07)"
   sodipodi:docname="wave.svg">
  <defs
     id="defs2" />
  <sodipodi:namedview
     id="base"
     pagecolor="#3f3f3f"
     bordercolor="#666666"
     borderopacity="1.0"
     inkscape:pageopacity="0"
     inkscape:pageshadow="2"
     inkscape:zoom="2.8"
     inkscape:cx="76.713983"
     inkscape:cy="53.168015"
     inkscape:document-units="mm"
     inkscape:current-layer="layer1"
     inkscape:document-rotation="0"
     showgrid="false"
     inkscape:window-width="1920"
     inkscape:window-height="1016"
     inkscape:window-x="1920"
     inkscape:window-y="27"
     inkscape:window-maximized="1" />
  <metadata
     id="metadata5">
    <rdf:RDF>
      <cc:Work
         rdf:about="">
        <dc:format>image/svg+xml</dc:format>
        <dc:type
           rdf:resource="http://purl.org/dc/dcmitype/StillImage" />
        <dc:title></dc:title>
      </cc:Work>
    </rdf:RDF>
  </metadata>
  <g
     inkscape:label="Layer 1"
     inkscape:groupmode="layer"
     id="layer1"
     transform="translate(-19.656681,-66.243501)">
    <path
       id="path835"
       style="fill:#ffffff;fill-opacity:1;stroke-width:0.338076;paint-order:markers stroke fill"
       d="M 32.885848,66.243501 A 13.229203,13.229112 0 0 0 19.656681,79.472757 13.229203,13.229112 0 0 0 32.885848,92.701834 13.229203,13.229112 0 0 0 46.115014,79.472757 13.229203,13.229112 0 0 0 32.885848,66.243501 Z m 0,3.334646 a 9.8945936,9.8945258 0 0 1 9.894498,9.89461 9.8945936,9.8945258 0 0 1 -9.894498,9.89443 9.8945936,9.8945258 0 0 1 -9.894679,-9.89443 9.8945936,9.8945258 0 0 1 9.894679,-9.89461 z" />
  </g>
</svg>
